# xmcd
#
# Track frame offsets:
#	150
#	10950
#	20895
#	29535
#	43325
#	54320
#	67815
#	78027
#	89812
#	100232
#	113430
#	127352
#	137962
#	150125
#	159940
#	171912
#	180762
#	193315
#	204355
#	214967
#
# Disc length: 3031 seconds
#
# Revision: 0
# Processed by: cddbd v1.5.1PL0 Copyright (c) Steve Scherf et al.
# Submitted via: audiograbber 1.82.01
#
DISCID=100bd514
DTITLE=Winfried Stark und seine Original Steigerwälder - 10 Jahre
DYEAR=1900
DGENRE=Country
TTITLE0=Winfried Stark und seine Original Steigerwälder - Polka, Polka, Hopsass
TTITLE0=a
TTITLE1=Winfried Stark und seine Original Steigerwälder - Zipf Zapf
TTITLE2=Winfried Stark und seine Original Steigerwälder - Lustig und Fidel
TTITLE3=Winfried Stark und seine Original Steigerwälder - Haferstroh Polka
TTITLE4=Winfried Stark und seine Original Steigerwälder - Beim Wein zu Zwein
TTITLE5=Winfried Stark und seine Original Steigerwälder - Heimat Walzer
TTITLE6=Winfried Stark und seine Original Steigerwälder - Freibier Polka
TTITLE7=Winfried Stark und seine Original Steigerwälder - Au Weia
TTITLE8=Winfried Stark und seine Original Steigerwälder - Frau Maier
TTITLE9=Winfried Stark und seine Original Steigerwälder - La Montanara
TTITLE10=Winfried Stark und seine Original Steigerwälder - Wir Gratulieren
TTITLE11=Winfried Stark und seine Original Steigerwälder - Holzhackerbuam
TTITLE12=Winfried Stark und seine Original Steigerwälder - Bergfrieden
TTITLE13=Winfried Stark und seine Original Steigerwälder - Kufsteinlied
TTITLE14=Winfried Stark und seine Original Steigerwälder - I bin Fidel
TTITLE15=Winfried Stark und seine Original Steigerwälder - Grüss euch Gott
TTITLE16=Winfried Stark und seine Original Steigerwälder - Ein Ruck hin, ein Ru
TTITLE16=ck her
TTITLE17=Winfried Stark und seine Original Steigerwälder - Jeden Donnerstag ist
TTITLE17=Vatertag
TTITLE18=Winfried Stark und seine Original Steigerwälder - Tief drin im Böhmerw
TTITLE18=ald
TTITLE19=Winfried Stark und seine Original Steigerwälder - Der Dicke aus Bavari
TTITLE19=a
EXTD=
EXTT0=
EXTT1=
EXTT2=
EXTT3=
EXTT4=
EXTT5=
EXTT6=
EXTT7=
EXTT8=
EXTT9=
EXTT10=
EXTT11=
EXTT12=
EXTT13=
EXTT14=
EXTT15=
EXTT16=
EXTT17=
EXTT18=
EXTT19=
PLAYORDER=
